<svg width="16" height="16" viewBox="0 0 16 16" fill="none" xmlns="http://www.w3.org/2000/svg">
<path d="M16 2.82995C16.0049 2.45856 15.9348 2.09 15.7939 1.74634C15.653 1.40268 15.4442 1.09099 15.18 0.829954C14.642 0.314119 13.9254 0.026123 13.18 0.026123C12.4346 0.026123 11.7181 0.314119 11.18 0.829954L4.58001 7.42995H4.36001C3.22746 7.46037 2.14983 7.92453 1.34964 8.72658C0.54945 9.52863 0.087799 10.6073 0.0600116 11.74L1.16649e-05 15C-0.0034269 15.1349 0.0204949 15.2692 0.0703351 15.3946C0.120175 15.5201 0.194902 15.6341 0.290012 15.73C0.48469 15.9054 0.737943 16.0017 1.00001 16L4.26001 15.94C5.39263 15.9122 6.47133 15.4505 7.27339 14.6503C8.07544 13.8501 8.53959 12.7725 8.57001 11.64V11.41L15.18 4.80995C15.4427 4.55195 15.6507 4.24364 15.7916 3.90345C15.9325 3.56325 16.0034 3.19815 16 2.82995ZM4.25001 13.94L2.00001 14V11.77C2.01051 11.1404 2.26799 10.5402 2.71694 10.0987C3.1659 9.65722 3.77036 9.40987 4.40001 9.40995C4.68575 9.4099 4.96863 9.46681 5.23213 9.57735C5.49562 9.68789 5.73443 9.84985 5.93461 10.0537C6.13479 10.2577 6.29231 10.4994 6.39798 10.7649C6.50364 11.0304 6.55533 11.3143 6.55001 11.6C6.5353 12.2091 6.28945 12.7898 5.86233 13.2244C5.43521 13.6589 4.8588 13.9147 4.25001 13.94ZM13.77 3.38995L7.90001 9.25995C7.74641 9.03132 7.57236 8.81711 7.38001 8.61995C7.18545 8.42471 6.97095 8.25042 6.74001 8.09995L12.61 2.23995C12.7663 2.0908 12.974 2.00757 13.19 2.00757C13.406 2.00757 13.6138 2.0908 13.77 2.23995C13.846 2.31781 13.9055 2.41018 13.9451 2.51155C13.9846 2.61291 14.0033 2.7212 14 2.82995C14.0004 2.93383 13.9802 3.03677 13.9408 3.13286C13.9013 3.22895 13.8433 3.31632 13.77 3.38995Z" fill="#0097CC"/>
</svg>
